<svg width="24" height="24" viewBox="0 0 24 24" fill="none" xmlns="http://www.w3.org/2000/svg"><rect width="24" height="24" fill="none" rx="0" ry="0"></rect><path fill-rule="evenodd" clip-rule="evenodd" d="M21.2101 2.7925C20.8201 2.4025 20.1901 2.4025 19.8001 2.7925L2.80007 19.7925C2.41007 20.1825 2.41007 20.8125 2.80007 21.2025C2.99007 21.4025 3.25007 21.5025 3.50007 21.5025C3.75007 21.5025 4.01007 21.4025 4.21007 21.2125L21.2101 4.2125C21.6001 3.8225 21.6001 3.1825 21.2101 2.7925ZM15.4401 11.3825L11.3801 15.4425C11.5801 15.4825 11.7901 15.5025 12.0001 15.5025C13.9301 15.5025 15.5001 13.9325 15.5001 12.0025C15.5001 11.7925 15.4801 11.5825 15.4401 11.3825ZM12.0001 8.5025C10.0701 8.5025 8.50006 10.0725 8.50006 12.0025C8.50006 12.2125 8.52006 12.4225 8.56006 12.6225L12.6201 8.5625C12.4201 8.5225 12.2101 8.5025 12.0001 8.5025ZM21.8207 11.429C21.8246 11.4345 21.8277 11.4391 21.8301 11.4425C22.0601 11.7825 22.0601 12.2225 21.8301 12.5625C21.8283 12.5651 21.826 12.5683 21.8234 12.5721C21.5654 12.946 17.3854 19.0025 12.0001 19.0025C10.8001 19.0025 9.66006 18.7025 8.60006 18.2225L10.1401 16.6825C10.7401 16.8825 11.3601 17.0025 12.0001 17.0025C15.5401 17.0025 18.6701 13.4125 19.7601 12.0025C19.3001 11.4025 18.4501 10.4025 17.3701 9.4525L18.7901 8.0325C20.5618 9.59984 21.6797 11.224 21.8207 11.429ZM2.17669 11.4329C2.4347 11.059 6.61467 5.0025 12.0001 5.0025C13.2001 5.0025 14.3401 5.3025 15.4001 5.7825L13.8601 7.3225C13.2601 7.1225 12.6301 7.0025 12.0001 7.0025C8.46006 7.0025 5.33006 10.5925 4.24006 12.0025C4.70006 12.6025 5.55006 13.6025 6.63006 14.5525L5.21006 15.9725C3.43828 14.4052 2.32043 12.781 2.1794 12.5761C2.17556 12.5705 2.17244 12.5659 2.17006 12.5625C1.94006 12.2225 1.94006 11.7825 2.17006 11.4425C2.17187 11.4399 2.17408 11.4367 2.17669 11.4329Z" fill="#ffffff"></path></svg>