<svg width="24" height="24" viewBox="0 0 24 24" fill="none" xmlns="http://www.w3.org/2000/svg"><rect width="24" height="24" fill="none" rx="0" ry="0"></rect><path fill-rule="evenodd" clip-rule="evenodd" d="M16.8889 11.6C15.9929 11.6 15.2667 12.3263 15.2667 13.2222V14.8889C15.2667 15.2203 14.998 15.4889 14.6667 15.4889C14.3353 15.4889 14.0667 15.2203 14.0667 14.8889V13.2222C14.0667 11.6636 15.3302 10.4 16.8889 10.4C18.4475 10.4 19.7111 11.6636 19.7111 13.2222V14.8889C19.7111 15.2203 19.4425 15.4889 19.1111 15.4889C18.7797 15.4889 18.5111 15.2203 18.5111 14.8889V13.2222C18.5111 12.3263 17.7848 11.6 16.8889 11.6Z" fill="#edf4f5"></path><path fill-rule="evenodd" clip-rule="evenodd" d="M7.17489 2.40002H13.8252H13.8252C14.3639 2.40002 14.8044 2.40001 15.1625 2.42927C15.5331 2.45955 15.8678 2.52413 16.1804 2.68341C16.6696 2.93268 17.0674 3.33043 17.3166 3.81965C17.4759 4.13224 17.5405 4.46696 17.5708 4.83757C17.6 5.19561 17.6 5.63615 17.6 6.17482V6.17483V6.17485V6.17486V6.17488V6.17489V9.00002C17.6 9.3314 17.3314 9.60002 17 9.60002C16.6687 9.60002 16.4 9.3314 16.4 9.00002V6.20003C16.4 5.63007 16.3996 5.23869 16.3748 4.93529C16.3506 4.63889 16.3061 4.47967 16.2474 4.36444C16.1132 4.10101 15.899 3.88684 15.6356 3.75262C15.5204 3.6939 15.3612 3.6495 15.0648 3.62528C14.7614 3.60049 14.37 3.60003 13.8 3.60003H7.20002C6.63007 3.60003 6.23869 3.60049 5.93529 3.62528C5.63889 3.6495 5.47967 3.6939 5.36444 3.75262C5.10101 3.88684 4.88684 4.10101 4.75262 4.36444C4.6939 4.47967 4.6495 4.63889 4.62528 4.93529C4.60049 5.23869 4.60003 5.63007 4.60003 6.20003V17.8C4.60003 18.37 4.60049 18.7614 4.62528 19.0648C4.6495 19.3612 4.6939 19.5204 4.75262 19.6356C4.88684 19.899 5.10101 20.1132 5.36444 20.2474C5.47967 20.3061 5.63889 20.3506 5.93529 20.3748C6.23869 20.3996 6.63007 20.4 7.20002 20.4H11.4286C11.76 20.4 12.0286 20.6687 12.0286 21C12.0286 21.3314 11.76 21.6 11.4286 21.6H7.17495C6.63622 21.6 6.19564 21.6 5.83757 21.5708C5.46696 21.5405 5.13224 21.4759 4.81965 21.3166C4.33043 21.0674 3.93268 20.6696 3.68341 20.1804C3.52413 19.8678 3.45955 19.5331 3.42927 19.1625C3.40001 18.8044 3.40002 18.3639 3.40002 17.8252V17.8251V6.17491V6.17484C3.40002 5.63616 3.40001 5.19561 3.42927 4.83757C3.45955 4.46696 3.52413 4.13224 3.68341 3.81965C3.93268 3.33043 4.33043 2.93268 4.81965 2.68341C5.13224 2.52413 5.46696 2.45955 5.83757 2.42927C6.19562 2.40001 6.63618 2.40002 7.17488 2.40002H7.17489ZM18.1356 14.2889H15.6422H15.6422H15.6422H15.6421H15.6421H15.6421C15.1963 14.2889 14.8256 14.2889 14.5232 14.3136C14.2081 14.3393 13.9146 14.3949 13.6376 14.536C13.2111 14.7533 12.8644 15.1 12.6471 15.5265C12.506 15.8035 12.4505 16.097 12.4247 16.4121C12.4 16.7145 12.4 17.0852 12.4 17.531V17.531V17.531V17.531V17.5311V17.5311V18.3579V18.3579V18.3579V18.3579V18.3579V18.3579C12.4 18.8038 12.4 19.1744 12.4247 19.4769C12.4505 19.7919 12.506 20.0855 12.6471 20.3624C12.8644 20.7889 13.2111 21.1357 13.6376 21.353C13.9146 21.4941 14.2081 21.5496 14.5232 21.5753C14.8256 21.6 15.1963 21.6 15.6421 21.6H15.6422H18.1356H18.1357C18.5815 21.6 18.9522 21.6 19.2547 21.5753C19.5697 21.5496 19.8632 21.4941 20.1402 21.353C20.5667 21.1357 20.9134 20.7889 21.1308 20.3624C21.2719 20.0855 21.3274 19.7919 21.3531 19.4769C21.3778 19.1744 21.3778 18.8038 21.3778 18.3579V18.3578V17.5311V17.531C21.3778 17.0852 21.3778 16.7145 21.3531 16.4121C21.3274 16.097 21.2719 15.8035 21.1308 15.5265C20.9134 15.1 20.5667 14.7533 20.1402 14.536C19.8632 14.3949 19.5697 14.3393 19.2547 14.3136C18.9522 14.2889 18.5816 14.2889 18.1357 14.2889H18.1357H18.1357H18.1357H18.1357H18.1356ZM14.1824 15.6052C14.262 15.5646 14.3801 15.5293 14.6209 15.5096C14.8687 15.4894 15.1901 15.4889 15.6667 15.4889H18.1111C18.5877 15.4889 18.9091 15.4894 19.1569 15.5096C19.3978 15.5293 19.5158 15.5646 19.5954 15.6052C19.7961 15.7074 19.9593 15.8706 20.0615 16.0713C20.1021 16.1509 20.1374 16.269 20.1571 16.5098C20.1773 16.7576 20.1778 17.079 20.1778 17.5556V18.3334C20.1778 18.81 20.1773 19.1313 20.1571 19.3792C20.1374 19.62 20.1021 19.738 20.0615 19.8176C19.9593 20.0183 19.7961 20.1815 19.5954 20.2838C19.5158 20.3243 19.3978 20.3596 19.1569 20.3793C18.9091 20.3996 18.5877 20.4 18.1111 20.4H15.6667C15.1901 20.4 14.8687 20.3996 14.6209 20.3793C14.3801 20.3596 14.262 20.3243 14.1824 20.2838C13.9817 20.1815 13.8186 20.0183 13.7163 19.8176C13.6757 19.738 13.6404 19.62 13.6207 19.3792C13.6005 19.1313 13.6 18.81 13.6 18.3334V17.5556C13.6 17.079 13.6005 16.7576 13.6207 16.5098C13.6404 16.269 13.6757 16.1509 13.7163 16.0713C13.8186 15.8706 13.9817 15.7074 14.1824 15.6052ZM16.8889 17.6223C16.2507 17.6223 15.7334 18.1396 15.7334 18.7778C15.7334 19.416 16.2507 19.9334 16.8889 19.9334C17.5271 19.9334 18.0445 19.416 18.0445 18.7778C18.0445 18.1396 17.5271 17.6223 16.8889 17.6223ZM7.55558 11.4C6.91739 11.4 6.40003 11.9174 6.40003 12.5556C6.40003 13.1938 6.91739 13.7111 7.55558 13.7111C8.19378 13.7111 8.71114 13.1938 8.71114 12.5556C8.71114 11.9174 8.19378 11.4 7.55558 11.4Z" fill="#ffffff"></path></svg>