<svg width="24" height="24" viewBox="0 0 24 24" fill="none" xmlns="http://www.w3.org/2000/svg"><rect width="24" height="24" fill="none" rx="0" ry="0"></rect><path fill-rule="evenodd" clip-rule="evenodd" d="M19.2222 11.6C18.3263 11.6 17.6 12.3263 17.6 13.2222V14.8889C17.6 15.2203 17.3314 15.4889 17 15.4889C16.6687 15.4889 16.4 15.2203 16.4 14.8889V13.2222C16.4 11.6636 17.6636 10.4 19.2222 10.4C20.7809 10.4 22.0445 11.6636 22.0445 13.2222V14.8889C22.0445 15.2203 21.7758 15.4889 21.4445 15.4889C21.1131 15.4889 20.8445 15.2203 20.8445 14.8889V13.2222C20.8445 12.3263 20.1182 11.6 19.2222 11.6Z" fill="#edf4f5"></path><path fill-rule="evenodd" clip-rule="evenodd" d="M6.17489 2.40002H12.8252H12.8252C13.3639 2.40002 13.8044 2.40001 14.1625 2.42927C14.5331 2.45955 14.8678 2.52413 15.1804 2.68341C15.6696 2.93268 16.0674 3.33043 16.3166 3.81965C16.4759 4.13224 16.5405 4.46696 16.5708 4.83757C16.6 5.19561 16.6 5.63615 16.6 6.17482V6.17483V6.17485V6.17486V6.17488V6.17489V9.00002C16.6 9.3314 16.3314 9.60002 16 9.60002C15.6687 9.60002 15.4 9.3314 15.4 9.00002V6.20003C15.4 5.63007 15.3996 5.23869 15.3748 4.93529C15.3506 4.63889 15.3061 4.47967 15.2474 4.36444C15.1132 4.10101 14.899 3.88684 14.6356 3.75262C14.5204 3.6939 14.3612 3.6495 14.0648 3.62528C13.7614 3.60049 13.37 3.60003 12.8 3.60003H6.20002C5.63007 3.60003 5.23869 3.60049 4.93529 3.62528C4.63889 3.6495 4.47967 3.6939 4.36444 3.75262C4.10101 3.88684 3.88684 4.10101 3.75262 4.36444C3.6939 4.47967 3.6495 4.63889 3.62528 4.93529C3.60049 5.23869 3.60003 5.63007 3.60003 6.20003V17.8C3.60003 18.37 3.60049 18.7614 3.62528 19.0648C3.6495 19.3612 3.6939 19.5204 3.75262 19.6356C3.88684 19.899 4.10101 20.1132 4.36444 20.2474C4.47967 20.3061 4.63889 20.3506 4.93529 20.3748C5.23869 20.3996 5.63007 20.4 6.20002 20.4H10.4286C10.76 20.4 11.0286 20.6687 11.0286 21C11.0286 21.3314 10.76 21.6 10.4286 21.6H6.17495C5.63622 21.6 5.19564 21.6 4.83757 21.5708C4.46696 21.5405 4.13224 21.4759 3.81965 21.3166C3.33043 21.0674 2.93268 20.6696 2.68341 20.1804C2.52413 19.8678 2.45955 19.5331 2.42927 19.1625C2.40001 18.8044 2.40002 18.3639 2.40002 17.8252V17.8251V6.17491V6.17484C2.40002 5.63616 2.40001 5.19561 2.42927 4.83757C2.45955 4.46696 2.52413 4.13224 2.68341 3.81965C2.93268 3.33043 3.33043 2.93268 3.81965 2.68341C4.13224 2.52413 4.46696 2.45955 4.83757 2.42927C5.19562 2.40001 5.63618 2.40002 6.17488 2.40002H6.17489ZM17.1356 14.2889H14.6422H14.6422H14.6422H14.6421H14.6421H14.6421C14.1963 14.2889 13.8256 14.2889 13.5232 14.3136C13.2081 14.3393 12.9146 14.3949 12.6376 14.536C12.2111 14.7533 11.8644 15.1 11.6471 15.5265C11.506 15.8035 11.4505 16.097 11.4247 16.4121C11.4 16.7145 11.4 17.0852 11.4 17.531V17.531V17.531V17.531V17.5311V17.5311V18.3579V18.3579V18.3579V18.3579V18.3579V18.3579C11.4 18.8038 11.4 19.1744 11.4247 19.4769C11.4505 19.7919 11.506 20.0855 11.6471 20.3624C11.8644 20.7889 12.2111 21.1357 12.6376 21.353C12.9146 21.4941 13.2081 21.5496 13.5232 21.5753C13.8257 21.6 14.1963 21.6 14.6421 21.6H14.6422H17.1356H17.1357C17.5816 21.6 17.9522 21.6 18.2547 21.5753C18.5697 21.5496 18.8632 21.4941 19.1402 21.353C19.5667 21.1357 19.9134 20.7889 20.1308 20.3624C20.2719 20.0855 20.3274 19.7919 20.3531 19.4769C20.3778 19.1744 20.3778 18.8037 20.3778 18.3578V17.5311C20.3778 17.0852 20.3778 16.7146 20.3531 16.4121C20.3274 16.097 20.2719 15.8035 20.1308 15.5265C19.9134 15.1 19.5667 14.7533 19.1402 14.536C18.8632 14.3949 18.5697 14.3393 18.2547 14.3136C17.9522 14.2889 17.5816 14.2889 17.1357 14.2889H17.1357H17.1357H17.1357H17.1357H17.1356ZM13.1824 15.6052C13.262 15.5646 13.3801 15.5293 13.6209 15.5096C13.8687 15.4894 14.1901 15.4889 14.6667 15.4889H17.1111C17.5877 15.4889 17.9091 15.4894 18.1569 15.5096C18.3978 15.5293 18.5158 15.5646 18.5954 15.6052C18.7961 15.7074 18.9593 15.8706 19.0615 16.0713C19.1021 16.1509 19.1374 16.269 19.1571 16.5098C19.1773 16.7576 19.1778 17.079 19.1778 17.5556V18.3334C19.1778 18.81 19.1773 19.1313 19.1571 19.3792C19.1374 19.62 19.1021 19.738 19.0615 19.8176C18.9593 20.0183 18.7961 20.1815 18.5954 20.2838C18.5158 20.3243 18.3978 20.3596 18.1569 20.3793C17.9091 20.3996 17.5877 20.4 17.1111 20.4H14.6667C14.1901 20.4 13.8687 20.3996 13.6209 20.3793C13.3801 20.3596 13.262 20.3243 13.1824 20.2838C12.9817 20.1815 12.8186 20.0183 12.7163 19.8176C12.6757 19.738 12.6404 19.62 12.6207 19.3792C12.6005 19.1313 12.6 18.81 12.6 18.3334V17.5556C12.6 17.079 12.6005 16.7576 12.6207 16.5098C12.6404 16.269 12.6757 16.1509 12.7163 16.0713C12.8186 15.8706 12.9817 15.7074 13.1824 15.6052ZM15.8889 17.6223C15.2507 17.6223 14.7334 18.1396 14.7334 18.7778C14.7334 19.416 15.2507 19.9334 15.8889 19.9334C16.5271 19.9334 17.0445 19.416 17.0445 18.7778C17.0445 18.1396 16.5271 17.6223 15.8889 17.6223ZM6.55558 11.4C5.91739 11.4 5.40003 11.9174 5.40003 12.5556C5.40003 13.1938 5.91739 13.7111 6.55558 13.7111C7.19378 13.7111 7.71114 13.1938 7.71114 12.5556C7.71114 11.9174 7.19378 11.4 6.55558 11.4Z" fill="#ffffff"></path></svg>