<svg width="24" height="24" viewBox="0 0 24 24" fill="none" xmlns="http://www.w3.org/2000/svg"><rect width="24" height="24" fill="none" rx="0" ry="0"></rect><path fill-rule="evenodd" clip-rule="evenodd" d="M21.8234 11.4304C21.826 11.4342 21.8283 11.4374 21.8301 11.44C22.0601 11.78 22.0601 12.22 21.8301 12.56C21.8283 12.5626 21.826 12.5658 21.8234 12.5696C21.5654 12.9435 17.3854 19 12.0001 19C6.61467 19 2.43471 12.9435 2.1767 12.5696C2.17408 12.5658 2.17187 12.5626 2.17006 12.56C1.94006 12.22 1.94006 11.78 2.17006 11.44C2.17187 11.4374 2.17408 11.4342 2.1767 11.4304C2.43471 11.0565 6.61467 5 12.0001 5C17.3854 5 21.5654 11.0565 21.8234 11.4304ZM4.24006 12C5.33006 13.41 8.47006 17 12.0001 17C15.5401 17 18.6701 13.41 19.7601 12C18.6701 10.59 15.5301 7 12.0001 7C8.46006 7 5.33006 10.59 4.24006 12ZM8.50006 12C8.50006 10.07 10.0701 8.5 12.0001 8.5C13.9301 8.5 15.5001 10.07 15.5001 12C15.5001 13.93 13.9301 15.5 12.0001 15.5C10.0701 15.5 8.50006 13.93 8.50006 12ZM10.5001 12C10.5001 12.83 11.1701 13.5 12.0001 13.5C12.8301 13.5 13.5001 12.83 13.5001 12C13.5001 11.17 12.8301 10.5 12.0001 10.5C11.1701 10.5 10.5001 11.17 10.5001 12Z" fill="#ffffff"></path></svg>